# xmcd
# Track frame offsets:
# 150
# 17798
# 39512
# 59163
# 102241
# 124782
# 142308
# 168212
# 196145
# 222637
# 241109
# 251164
# 275606
# 307276
#
# Disc length: 4379 seconds
# Revision: 2
# Processed by: cddbd v1.5.2PL0 Copyright (c) Steve Scherf et al.
# Submitted via: VisiTrax 2.10.3.257 - For more info visit www.synapsa.com
#
DISCID=dd11190e
DTITLE=Various Artist - Kind of Blue Story
DYEAR=2006
DGENRE=Jazz
TTITLE0=Tony Scott - A Night in Tunisia
TTITLE1=The Classical Jazz Quartet - Piano Concerto #2 in C Minor
TTITLE2=Hamilton de Holanda - Sertao
TTITLE3=Phil Woods - All the Things You Are
TTITLE4=Geroge Cables - I Told You So
TTITLE5=Maucha Adnet - Aguas de Marco
TTITLE6=The Classical Jazz Quartet - Oboe Concerto in A Major
TTITLE7=Eddie Henderson - Around The World in 3/4
TTITLE8=Stanley Clarke - I Mean You
TTITLE9=Phil Woods - Sleigh Ride for One
TTITLE10=Toquinho - Garota de Ipanema
TTITLE11=The Classical Jazz Quartet - Hallelujah
TTITLE12=The Django Reinhardt Festival - Minor Swing
TTITLE13=David Benoit - Some Other Time
EXTD=YEAR: 2006
EXTT0=
EXTT1=
EXTT2=
EXTT3=
EXTT4=
EXTT5=
EXTT6=
EXTT7=
EXTT8=
EXTT9=
EXTT10=
EXTT11=
EXTT12=
EXTT13=
PLAYORDER=
